<svg xmlns="http://www.w3.org/2000/svg" id="graph" viewBox="0 0 1463 916"><text x="-9999" y="-9999" font-size="12" fill="transparent">StmtList</text><g transform="translate(24,24)"><line x1="707.5" y1="28" x2="707.5" y2="84" stroke="#8bc34a" stroke-width="1.4"/><line x1="707.5" y1="112" x2="632.5" y2="168" stroke="#8bc34a" stroke-width="1.4"/><line x1="632.5" y1="196" x2="632.5" y2="252" stroke="#8bc34a" stroke-width="1.4"/><line x1="632.5" y1="280" x2="25.5" y2="336" stroke="#8bc34a" stroke-width="1.4"/><rect x="0" y="336" width="51" height="28" rx="6" ry="6" fill="#34495e" stroke="#666"/><text x="25.5" y="354" text-anchor="middle" fill="#eaeaea" font-size="12">while</text><line x1="632.5" y1="280" x2="94" y2="336" stroke="#8bc34a" stroke-width="1.4"/><rect x="73" y="336" width="42" height="28" rx="6" ry="6" fill="#34495e" stroke="#666"/><text x="94" y="354" text-anchor="middle" fill="#eaeaea" font-size="12">(</text><line x1="632.5" y1="280" x2="249.5" y2="336" stroke="#8bc34a" stroke-width="1.4"/><line x1="249.5" y1="364" x2="208" y2="420" stroke="#8bc34a" stroke-width="1.4"/><line x1="208" y1="448" x2="164" y2="504" stroke="#8bc34a" stroke-width="1.4"/><line x1="164" y1="532" x2="158" y2="588" stroke="#8bc34a" stroke-width="1.4"/><rect x="137" y="588" width="42" height="28" rx="6" ry="6" fill="#34495e" stroke="#666"/><text x="158" y="606" text-anchor="middle" fill="#eaeaea" font-size="12">x</text><rect x="137" y="504" width="54" height="28" rx="6" ry="6" fill="#2d2d2d" stroke="#666"/><text x="164" y="522" text-anchor="middle" fill="#eaeaea" font-size="12">Factor</text><line x1="208" y1="448" x2="246" y2="504" stroke="#8bc34a" stroke-width="1.4"/><rect x="213" y="504" width="66" height="28" rx="6" ry="6" fill="#2d2d2d" stroke="#666"/><text x="246" y="522" text-anchor="middle" fill="#eaeaea" font-size="12">TermTail</text><rect x="183.5" y="420" width="49" height="28" rx="6" ry="6" fill="#2d2d2d" stroke="#666"/><text x="208" y="438" text-anchor="middle" fill="#eaeaea" font-size="12">Term</text><line x1="249.5" y1="364" x2="331.5" y2="420" stroke="#8bc34a" stroke-width="1.4"/><rect x="301" y="420" width="61" height="28" rx="6" ry="6" fill="#2d2d2d" stroke="#666"/><text x="331.5" y="438" text-anchor="middle" fill="#eaeaea" font-size="12">ExprTail</text><rect x="227" y="336" width="45" height="28" rx="6" ry="6" fill="#2d2d2d" stroke="#666"/><text x="249.5" y="354" text-anchor="middle" fill="#eaeaea" font-size="12">Expr</text><line x1="632.5" y1="280" x2="411.5" y2="336" stroke="#8bc34a" stroke-width="1.4"/><line x1="411.5" y1="364" x2="405" y2="420" stroke="#8bc34a" stroke-width="1.4"/><rect x="384" y="420" width="42" height="28" rx="6" ry="6" fill="#34495e" stroke="#666"/><text x="405" y="438" text-anchor="middle" fill="#eaeaea" font-size="12">&lt;</text><rect x="384" y="336" width="55" height="28" rx="6" ry="6" fill="#2d2d2d" stroke="#666"/><text x="411.5" y="354" text-anchor="middle" fill="#eaeaea" font-size="12">RelOp</text><line x1="632.5" y1="280" x2="573.5" y2="336" stroke="#8bc34a" stroke-width="1.4"/><line x1="573.5" y1="364" x2="532" y2="420" stroke="#8bc34a" stroke-width="1.4"/><line x1="532" y1="448" x2="488" y2="504" stroke="#8bc34a" stroke-width="1.4"/><line x1="488" y1="532" x2="482" y2="588" stroke="#8bc34a" stroke-width="1.4"/><rect x="461" y="588" width="42" height="28" rx="6" ry="6" fill="#34495e" stroke="#666"/><text x="482" y="606" text-anchor="middle" fill="#eaeaea" font-size="12">y</text><rect x="461" y="504" width="54" height="28" rx="6" ry="6" fill="#2d2d2d" stroke="#666"/><text x="488" y="522" text-anchor="middle" fill="#eaeaea" font-size="12">Factor</text><line x1="532" y1="448" x2="570" y2="504" stroke="#8bc34a" stroke-width="1.4"/><rect x="537" y="504" width="66" height="28" rx="6" ry="6" fill="#2d2d2d" stroke="#666"/><text x="570" y="522" text-anchor="middle" fill="#eaeaea" font-size="12">TermTail</text><rect x="507.5" y="420" width="49" height="28" rx="6" ry="6" fill="#2d2d2d" stroke="#666"/><text x="532" y="438" text-anchor="middle" fill="#eaeaea" font-size="12">Term</text><line x1="573.5" y1="364" x2="655.5" y2="420" stroke="#8bc34a" stroke-width="1.4"/><rect x="625" y="420" width="61" height="28" rx="6" ry="6" fill="#2d2d2d" stroke="#666"/><text x="655.5" y="438" text-anchor="middle" fill="#eaeaea" font-size="12">ExprTail</text><rect x="551" y="336" width="45" height="28" rx="6" ry="6" fill="#2d2d2d" stroke="#666"/><text x="573.5" y="354" text-anchor="middle" fill="#eaeaea" font-size="12">Expr</text><line x1="632.5" y1="280" x2="729" y2="336" stroke="#8bc34a" stroke-width="1.4"/><rect x="708" y="336" width="42" height="28" rx="6" ry="6" fill="#34495e" stroke="#666"/><text x="729" y="354" text-anchor="middle" fill="#eaeaea" font-size="12">)</text><line x1="632.5" y1="280" x2="1018.5" y2="336" stroke="#8bc34a" stroke-width="1.4"/><line x1="1018.5" y1="364" x2="1018.5" y2="420" stroke="#8bc34a" stroke-width="1.4"/><line x1="1018.5" y1="448" x2="793" y2="504" stroke="#8bc34a" stroke-width="1.4"/><rect x="772" y="504" width="42" height="28" rx="6" ry="6" fill="#34495e" stroke="#666"/><text x="793" y="522" text-anchor="middle" fill="#eaeaea" font-size="12">x</text><line x1="1018.5" y1="448" x2="857" y2="504" stroke="#8bc34a" stroke-width="1.4"/><rect x="836" y="504" width="42" height="28" rx="6" ry="6" fill="#34495e" stroke="#666"/><text x="857" y="522" text-anchor="middle" fill="#eaeaea" font-size="12">=</text><line x1="1018.5" y1="448" x2="1082.5" y2="504" stroke="#8bc34a" stroke-width="1.4"/><line x1="1082.5" y1="532" x2="1041" y2="588" stroke="#8bc34a" stroke-width="1.4"/><line x1="1041" y1="616" x2="927" y2="672" stroke="#8bc34a" stroke-width="1.4"/><line x1="927" y1="700" x2="921" y2="756" stroke="#8bc34a" stroke-width="1.4"/><rect x="900" y="756" width="42" height="28" rx="6" ry="6" fill="#34495e" stroke="#666"/><text x="921" y="774" text-anchor="middle" fill="#eaeaea" font-size="12">x</text><rect x="900" y="672" width="54" height="28" rx="6" ry="6" fill="#2d2d2d" stroke="#666"/><text x="927" y="690" text-anchor="middle" fill="#eaeaea" font-size="12">Factor</text><line x1="1041" y1="616" x2="1079" y2="672" stroke="#8bc34a" stroke-width="1.4"/><line x1="1079" y1="700" x2="997" y2="756" stroke="#8bc34a" stroke-width="1.4"/><rect x="976" y="756" width="42" height="28" rx="6" ry="6" fill="#34495e" stroke="#666"/><text x="997" y="774" text-anchor="middle" fill="#eaeaea" font-size="12">*</text><line x1="1079" y1="700" x2="1067" y2="756" stroke="#8bc34a" stroke-width="1.4"/><line x1="1067" y1="784" x2="1061" y2="840" stroke="#8bc34a" stroke-width="1.4"/><rect x="1040" y="840" width="42" height="28" rx="6" ry="6" fill="#34495e" stroke="#666"/><text x="1061" y="858" text-anchor="middle" fill="#eaeaea" font-size="12">2</text><rect x="1040" y="756" width="54" height="28" rx="6" ry="6" fill="#2d2d2d" stroke="#666"/><text x="1067" y="774" text-anchor="middle" fill="#eaeaea" font-size="12">Factor</text><line x1="1079" y1="700" x2="1149" y2="756" stroke="#8bc34a" stroke-width="1.4"/><rect x="1116" y="756" width="66" height="28" rx="6" ry="6" fill="#2d2d2d" stroke="#666"/><text x="1149" y="774" text-anchor="middle" fill="#eaeaea" font-size="12">TermTail</text><rect x="1046" y="672" width="66" height="28" rx="6" ry="6" fill="#2d2d2d" stroke="#666"/><text x="1079" y="690" text-anchor="middle" fill="#eaeaea" font-size="12">TermTail</text><rect x="1016.5" y="588" width="49" height="28" rx="6" ry="6" fill="#2d2d2d" stroke="#666"/><text x="1041" y="606" text-anchor="middle" fill="#eaeaea" font-size="12">Term</text><line x1="1082.5" y1="532" x2="1234.5" y2="588" stroke="#8bc34a" stroke-width="1.4"/><rect x="1204" y="588" width="61" height="28" rx="6" ry="6" fill="#2d2d2d" stroke="#666"/><text x="1234.5" y="606" text-anchor="middle" fill="#eaeaea" font-size="12">ExprTail</text><rect x="1060" y="504" width="45" height="28" rx="6" ry="6" fill="#2d2d2d" stroke="#666"/><text x="1082.5" y="522" text-anchor="middle" fill="#eaeaea" font-size="12">Expr</text><rect x="990" y="420" width="57" height="28" rx="6" ry="6" fill="#2d2d2d" stroke="#666"/><text x="1018.5" y="438" text-anchor="middle" fill="#eaeaea" font-size="12">Assign</text><rect x="995.5" y="336" width="46" height="28" rx="6" ry="6" fill="#2d2d2d" stroke="#666"/><text x="1018.5" y="354" text-anchor="middle" fill="#eaeaea" font-size="12">Stmt</text><rect x="606" y="252" width="53" height="28" rx="6" ry="6" fill="#2d2d2d" stroke="#666"/><text x="632.5" y="270" text-anchor="middle" fill="#eaeaea" font-size="12">While</text><rect x="609.5" y="168" width="46" height="28" rx="6" ry="6" fill="#2d2d2d" stroke="#666"/><text x="632.5" y="186" text-anchor="middle" fill="#eaeaea" font-size="12">Stmt</text><line x1="707.5" y1="112" x2="1308" y2="168" stroke="#8bc34a" stroke-width="1.4"/><rect x="1287" y="168" width="42" height="28" rx="6" ry="6" fill="#34495e" stroke="#666"/><text x="1308" y="186" text-anchor="middle" fill="#eaeaea" font-size="12">;</text><line x1="707.5" y1="112" x2="1383" y2="168" stroke="#8bc34a" stroke-width="1.4"/><rect x="1351" y="168" width="64" height="28" rx="6" ry="6" fill="#2d2d2d" stroke="#666"/><text x="1383" y="186" text-anchor="middle" fill="#eaeaea" font-size="12">StmtList</text><rect x="675.5" y="84" width="64" height="28" rx="6" ry="6" fill="#2d2d2d" stroke="#666"/><text x="707.5" y="102" text-anchor="middle" fill="#eaeaea" font-size="12">StmtList</text><rect x="674" y="0" width="67" height="28" rx="6" ry="6" fill="#2d2d2d" stroke="#666"/><text x="707.5" y="18" text-anchor="middle" fill="#eaeaea" font-size="12">Program</text></g></svg>